<svg width="30" height="30" viewBox="0 0 30 30" fill="none" xmlns="http://www.w3.org/2000/svg">
<path fill-rule="evenodd" clip-rule="evenodd" d="M20.7119 0.0193294C19.332 0.164901 18.0015 0.700153 16.9352 1.53853C16.6458 1.76609 2.89097 14.9391 2.38274 15.4755C1.00397 16.9305 0.21193 18.6548 0.0259623 20.6063C-0.0264509 21.1563 0.00317119 22.0866 0.0907286 22.6412C0.328024 24.1441 0.978624 25.5782 1.96212 26.7664C2.26208 27.1287 3.01051 27.8414 3.41105 28.146C4.66143 29.097 6.08105 29.6834 7.72029 29.9259C8.33862 30.0175 9.60407 30.0257 10.1941 29.9421C11.5752 29.7463 12.7058 29.355 13.8171 28.6877C14.6731 28.1738 14.3076 28.5125 22.3 20.8272C29.4096 13.9906 29.7507 13.6576 29.8624 13.4446C30.2932 12.6232 29.6587 11.7008 28.7034 11.7596C28.2127 11.7899 28.8957 11.1672 20.7751 18.9871C16.7638 22.8497 13.367 26.103 13.2265 26.2165C11.7202 27.434 9.65578 27.9297 7.68317 27.5474C5.46266 27.1171 3.59791 25.5668 2.8202 23.5044C2.04591 21.4512 2.42669 19.2034 3.85069 17.4211C4.17203 17.019 18.3132 3.45645 18.6849 3.19395C19.0073 2.96627 19.6164 2.66253 19.9777 2.54935C21.3428 2.12164 22.8313 2.31838 24.035 3.08564C24.2258 3.20725 24.4749 3.41119 24.7201 3.64642C25.322 4.22386 25.6671 4.7748 25.8732 5.48706C25.9551 5.77045 25.9618 5.83532 25.9622 6.36003C25.9626 6.72909 25.9479 6.98567 25.9202 7.09539C25.775 7.67069 25.5069 8.24179 25.1578 8.71932C24.9791 8.96376 24.0214 9.89823 19.1815 14.5507C16.0116 17.5978 13.3247 20.1587 13.2106 20.2416C12.9519 20.4296 12.6238 20.585 12.2969 20.6747C11.9655 20.7655 11.264 20.7742 10.9442 20.6914C10.3102 20.5273 9.82943 20.1313 9.6305 19.6094C9.53451 19.3576 9.53512 18.8564 9.63181 18.5088C9.7185 18.1972 9.9045 17.8252 10.0915 17.5896C10.1717 17.4885 12.3913 15.3484 15.0239 12.8339C17.7762 10.2049 19.8582 8.19274 19.923 8.09904C20.3345 7.50389 20.1092 6.71463 19.4373 6.3979C19.2778 6.32271 19.2249 6.31407 18.9243 6.31407C18.6159 6.31407 18.5739 6.32139 18.3976 6.40587C18.2305 6.48596 17.5879 7.08782 13.3591 11.1244C10.6933 13.6692 8.39742 15.8822 8.25725 16.0423C7.48357 16.9259 7.16801 17.7251 7.12587 18.9072C7.09698 19.7186 7.21279 20.2802 7.54294 20.9294C8.09794 22.0207 9.07856 22.7085 10.4974 23.0016C10.7873 23.0615 10.9294 23.0711 11.5507 23.0725C12.1887 23.074 12.308 23.0662 12.6184 23.0021C13.4873 22.8229 14.2375 22.4735 14.9024 21.9385C15.034 21.8325 17.7431 19.2457 20.9225 16.1901C27.0942 10.2586 26.9716 10.3819 27.4366 9.63852C27.9275 8.85358 28.2421 8.00504 28.3601 7.14733C28.4355 6.59921 28.4063 5.71073 28.2965 5.21102C28.0163 3.93584 27.3603 2.82364 26.3267 1.87125C25.2667 0.894473 23.9605 0.277503 22.4994 0.0634818C22.0966 0.00446895 21.0886 -0.0204108 20.7119 0.0193294Z" fill="#313131" fill-opacity="0.5"/>
</svg>
