<svg width="32" height="32" viewBox="0 0 32 32"  xmlns="http://www.w3.org/2000/svg">
<g clip-path="url(#clip0)">
<path d="M16.0051 7.78394C11.4678 7.78394 7.79443 11.4613 7.79443 15.9946C7.79443 20.5319 11.4718 24.2053 16.0051 24.2053C20.5424 24.2053 24.2158 20.5279 24.2158 15.9946C24.2158 11.4573 20.5384 7.78394 16.0051 7.78394ZM16.0051 21.3239C13.0598 21.3239 10.6758 18.9386 10.6758 15.9946C10.6758 13.0506 13.0611 10.6653 16.0051 10.6653C18.9491 10.6653 21.3344 13.0506 21.3344 15.9946C21.3358 18.9386 18.9504 21.3239 16.0051 21.3239Z"/>
<path d="M22.5967 0.101492C19.6527 -0.0358412 12.3607 -0.0291746 9.41399 0.101492C6.82466 0.222825 4.54066 0.848159 2.69933 2.68949C-0.378007 5.76683 0.0153265 9.91349 0.0153265 15.9948C0.0153265 22.2188 -0.33134 26.2695 2.69933 29.3002C5.78866 32.3882 9.99533 31.9842 16.0047 31.9842C22.17 31.9842 24.298 31.9882 26.478 31.1442C29.442 29.9935 31.6793 27.3442 31.898 22.5855C32.0367 19.6402 32.0287 12.3495 31.898 9.40283C31.634 3.78549 28.6193 0.378825 22.5967 0.101492ZM27.2567 27.2642C25.2393 29.2815 22.4407 29.1015 15.966 29.1015C9.29933 29.1015 6.62599 29.2002 4.67533 27.2442C2.42866 25.0082 2.83533 21.4175 2.83533 15.9735C2.83533 8.60683 2.07933 3.30149 9.47266 2.92283C11.1713 2.86283 11.6713 2.84283 15.9473 2.84283L16.0073 2.88283C23.1127 2.88283 28.6873 2.13883 29.022 9.53083C29.098 11.2175 29.1153 11.7242 29.1153 15.9935C29.114 22.5828 29.2393 25.2722 27.2567 27.2642Z"  />
<path d="M24.5412 9.37859C25.6009 9.37859 26.4599 8.51958 26.4599 7.45993C26.4599 6.40028 25.6009 5.54126 24.5412 5.54126C23.4816 5.54126 22.6226 6.40028 22.6226 7.45993C22.6226 8.51958 23.4816 9.37859 24.5412 9.37859Z"/>
</g>
<defs>
<clipPath id="clip0">
<rect width="32" height="32" />
</clipPath>
</defs>
</svg>
