<svg width="49" height="49" viewBox="0 0 49 49" xmlns="http://www.w3.org/2000/svg">
<path d="M48.5677 9.73511L33.707 24.5001L48.5677 39.2651C48.8364 38.7036 48.9993 38.0829 48.9993 37.42V11.5802C48.9993 10.9172 48.8364 10.2966 48.5677 9.73511Z"/>
<path d="M44.6937 7.27344H4.30697C3.64404 7.27344 3.0234 7.43642 2.46191 7.70506L21.4554 26.6029C23.1348 28.2823 25.8658 28.2823 27.5452 26.6029L46.5387 7.70506C45.9773 7.43642 45.3566 7.27344 44.6937 7.27344Z"/>
<path d="M0.431621 9.73511C0.162982 10.2966 0 10.9172 0 11.5802V37.42C0 38.083 0.162982 38.7037 0.431621 39.2651L15.2923 24.5001L0.431621 9.73511Z"/>
<path d="M31.6781 26.53L29.5752 28.6329C26.7769 31.4312 22.2237 31.4312 19.4254 28.6329L17.3226 26.53L2.46191 41.295C3.0234 41.5636 3.64404 41.7266 4.30697 41.7266H44.6937C45.3566 41.7266 45.9773 41.5636 46.5387 41.295L31.6781 26.53Z"/>
</svg>
