<svg width="34" height="34" viewBox="0 0 34 34" xmlns="http://www.w3.org/2000/svg">
<g clip-path="url(#clip0)">
<path d="M33.0746 24.9526L28.3298 20.2078C26.6352 18.5132 23.7544 19.1911 23.0766 21.394C22.5682 22.9192 20.8736 23.7664 19.3485 23.4275C15.9594 22.5802 11.384 18.1743 10.5367 14.6157C10.0284 13.0905 11.0451 11.3959 12.5702 10.8876C14.7732 10.2098 15.451 7.32902 13.7564 5.63445L9.01163 0.88965C7.65598 -0.29655 5.62249 -0.29655 4.43629 0.88965L1.2166 4.10934C-2.00308 7.49848 1.55552 16.4797 9.52001 24.4442C17.4845 32.4087 26.4657 36.1368 29.8549 32.7476L33.0746 29.5279C34.2608 28.1723 34.2608 26.1388 33.0746 24.9526Z"/>
</g>
<defs>
<clipPath id="clip0">
<rect width="34" height="34"/>
</clipPath>
</defs>
</svg>
