<svg width="32" height="32" viewBox="0 0 32 32" xmlns="http://www.w3.org/2000/svg">
<path d="M0.565214 15.4287L7.93865 18.1807L10.7926 27.3591C10.9752 27.9469 11.6941 28.1642 12.1712 27.7741L16.2813 24.4235C16.7121 24.0725 17.3257 24.055 17.776 24.3818L25.1891 29.7639C25.6995 30.1349 26.4226 29.8552 26.5506 29.2384L31.9811 3.11675C32.1208 2.44304 31.4589 1.88101 30.8174 2.12912L0.556574 13.8028C-0.190199 14.0908 -0.183692 15.1481 0.565214 15.4287ZM10.3327 16.7158L24.7431 7.84037C25.0021 7.68133 25.2686 8.03152 25.0462 8.23781L13.1534 19.2927C12.7353 19.6819 12.4657 20.2026 12.3893 20.7678L11.9842 23.7701C11.9305 24.1709 11.3675 24.2107 11.2568 23.8228L9.69876 18.3481C9.52031 17.7237 9.78036 17.0567 10.3327 16.7158Z"/>
</svg>
