<svg width="32" height="32" viewBox="0 0 32 32" xmlns="http://www.w3.org/2000/svg">
<g clip-path="url(#clip0)">
<path d="M26.5533 17.3707C26.036 16.7174 26.184 16.4267 26.5533 15.8427C26.56 15.8361 30.8307 9.93475 31.2707 7.93341L31.2733 7.93208C31.492 7.20275 31.2733 6.66675 30.216 6.66675H26.7173C25.8267 6.66675 25.416 7.12675 25.196 7.64141C25.196 7.64141 23.4147 11.9054 20.8947 14.6694C20.0813 15.4681 19.7053 15.7241 19.2613 15.7241C19.0427 15.7241 18.7027 15.4681 18.7027 14.7387V7.93208C18.7027 7.05741 18.4533 6.66675 17.716 6.66675H12.2147C11.656 6.66675 11.324 7.07475 11.324 7.45475C11.324 8.28408 12.584 8.47475 12.7147 10.8081V15.8707C12.7147 16.9801 12.5133 17.1841 12.0667 17.1841C10.8773 17.1841 7.99067 12.9027 6.28 8.00275C5.93467 7.05208 5.59733 6.66808 4.7 6.66808H1.2C0.201333 6.66808 0 7.12808 0 7.64275C0 8.55208 1.18933 13.0734 5.53067 19.0467C8.424 23.1241 12.4987 25.3334 16.2053 25.3334C18.4333 25.3334 18.7053 24.8427 18.7053 23.9987C18.7053 20.1027 18.504 19.7347 19.62 19.7347C20.1373 19.7347 21.028 19.9907 23.108 21.9574C25.4853 24.2894 25.876 25.3334 27.2067 25.3334H30.7053C31.7027 25.3334 32.208 24.8427 31.9173 23.8747C31.252 21.8387 26.756 17.6507 26.5533 17.3707Z"/>
</g>
<defs>
<clipPath id="clip0">
<rect width="32" height="32"/>
</clipPath>
</defs>
</svg>
