<svg width="49" height="49" viewBox="0 0 49 49" xmlns="http://www.w3.org/2000/svg">
<path clip-rule="evenodd" d="M40.7491 8.18318C36.4514 3.88046 30.7359 1.50985 24.6468 1.50732C12.0998 1.50732 1.88837 11.7185 1.88332 24.2689C1.88164 28.2808 2.9297 32.1972 4.9218 35.6492L1.69238 47.4448L13.7597 44.2793C17.0847 46.0931 20.8281 47.0489 24.6376 47.05H24.6471C37.1927 47.05 47.4053 36.838 47.4101 24.2871C47.4126 18.2045 45.047 12.4856 40.7491 8.18318ZM24.6468 43.2057H24.639C21.2441 43.2043 17.9146 42.292 15.0093 40.5685L14.3187 40.1583L7.15784 42.0368L9.06919 35.0551L8.61918 34.3393C6.72521 31.3269 5.72509 27.8451 5.72677 24.2703C5.7307 13.8387 14.2184 5.3519 24.6544 5.3519C29.708 5.35358 34.4585 7.32409 38.0305 10.9003C41.6025 14.4766 43.5686 19.2302 43.5669 24.2857C43.5624 34.7181 35.0753 43.2057 24.6468 43.2057ZM35.0248 29.0356C34.4562 28.7507 31.6597 27.3752 31.1382 27.1851C30.6173 26.9953 30.2376 26.9008 29.8588 27.47C29.4795 28.0391 28.3896 29.3205 28.0577 29.6998C27.7257 30.0795 27.3943 30.1271 26.8254 29.8423C26.2565 29.5577 24.4239 28.9568 22.2513 27.0191C20.5606 25.511 19.4191 23.6484 19.0872 23.0792C18.7558 22.5095 19.0844 22.2313 19.3367 21.9184C19.9524 21.1538 20.569 20.3522 20.7585 19.9729C20.9483 19.5933 20.8533 19.261 20.7109 18.9764C20.569 18.6918 19.4315 15.8922 18.9576 14.753C18.4956 13.6444 18.0271 13.7941 17.6777 13.7768C17.3463 13.7602 16.9669 13.7569 16.5876 13.7569C16.2085 13.7569 15.5922 13.899 15.0707 14.4687C14.5495 15.0382 13.0803 16.414 13.0803 19.2136C13.0803 22.0132 15.1184 24.7178 15.4027 25.0974C15.687 25.477 19.4135 31.222 25.119 33.6854C26.476 34.272 27.5353 34.6216 28.3616 34.8838C29.7242 35.3167 30.9638 35.2556 31.944 35.1092C33.0369 34.9458 35.3089 33.7331 35.7833 32.4047C36.2571 31.0759 36.2571 29.9373 36.1147 29.6998C35.9728 29.4626 35.5934 29.3205 35.0248 29.0356Z"/>
</svg>
