<?xml version="1.0" encoding="utf-8"?><svg viewBox="0 0 49 49" xmlns="http://www.w3.org/2000/svg" xmlns:xlink="http://www.w3.org/1999/xlink"><style>:root>svg{display:none}:root>svg:target{display:block}</style><svg fill="none" viewBox="0 0 30 30" id="clip" xmlns="http://www.w3.org/2000/svg"><path fill-rule="evenodd" clip-rule="evenodd" d="M20.712.02c-1.38.145-2.71.68-3.777 1.519-.29.227-14.044 13.4-14.552 13.937C1.004 16.93.212 18.654.026 20.605c-.052.55-.023 1.48.065 2.035a8.6 8.6 0 001.871 4.125c.3.363 1.049 1.075 1.449 1.38 1.25.951 2.67 1.537 4.31 1.78.618.091 1.883.1 2.473.016 1.381-.196 2.512-.587 3.623-1.254.856-.514.49-.175 8.483-7.86 7.11-6.837 7.45-7.17 7.562-7.383.431-.822-.203-1.744-1.159-1.685-.49.03.193-.593-7.928 7.227-4.011 3.863-7.408 7.116-7.548 7.23-1.507 1.217-3.571 1.713-5.544 1.33-2.22-.43-4.085-1.98-4.863-4.043-.774-2.053-.393-4.3 1.03-6.083.322-.402 14.463-13.965 14.835-14.227a5.827 5.827 0 011.293-.645 4.856 4.856 0 014.057.537c.19.121.44.325.685.56.602.578.947 1.129 1.153 1.841.082.283.089.348.09.873 0 .37-.015.626-.043.735a4.787 4.787 0 01-.762 1.624c-.179.245-1.137 1.18-5.977 5.832-3.17 3.047-5.856 5.608-5.97 5.69a2.909 2.909 0 01-.914.434c-.332.09-1.033.1-1.353.016-.634-.164-1.115-.56-1.314-1.082-.095-.251-.095-.753.002-1.1.087-.312.273-.684.46-.92.08-.1 2.3-2.24 4.932-4.755 2.752-2.63 4.834-4.641 4.899-4.735.412-.595.186-1.384-.486-1.701-.16-.075-.212-.084-.513-.084-.308 0-.35.007-.526.092-.168.08-.81.682-5.039 4.718-2.666 2.545-4.962 4.758-5.102 4.918-.773.884-1.089 1.683-1.131 2.865-.029.812.087 1.373.417 2.022.555 1.092 1.536 1.78 2.954 2.073.29.06.432.07 1.054.07.638.002.757-.006 1.067-.07a5.254 5.254 0 002.284-1.063c.132-.107 2.841-2.693 6.02-5.749 6.172-5.931 6.05-5.808 6.515-6.551.49-.785.805-1.634.923-2.492.076-.548.046-1.436-.063-1.936-.28-1.275-.937-2.387-1.97-3.34A7.097 7.097 0 0022.499.063C22.097.004 21.09-.02 20.712.02z" fill="#313131" fill-opacity=".5"/></svg><svg viewBox="0 0 32 32" id="instagram" xmlns="http://www.w3.org/2000/svg"><g clip-path="url(#bclip0)"><path d="M16.005 7.784a8.21 8.21 0 00-8.21 8.21 8.21 8.21 0 008.21 8.211 8.21 8.21 0 008.21-8.21 8.21 8.21 0 00-8.21-8.211zm0 13.54a5.328 5.328 0 01-5.33-5.33 5.328 5.328 0 015.33-5.329 5.328 5.328 0 015.33 5.33 5.327 5.327 0 01-5.33 5.329z"/><path d="M22.597.101c-2.944-.137-10.236-.13-13.183 0-2.59.122-4.873.747-6.715 2.588C-.378 5.767.015 9.913.015 15.995.015 22.219-.33 26.27 2.7 29.3c3.09 3.088 7.296 2.684 13.306 2.684 6.165 0 8.293.004 10.473-.84 2.964-1.15 5.201-3.8 5.42-8.558.139-2.946.13-10.236 0-13.183C31.634 3.785 28.619.379 22.597.1zm4.66 27.163c-2.018 2.018-4.816 1.838-11.291 1.838-6.667 0-9.34.098-11.29-1.858-2.247-2.236-1.84-5.826-1.84-11.27 0-7.367-.757-12.673 6.637-13.051 1.698-.06 2.198-.08 6.474-.08l.06.04c7.106 0 12.68-.744 13.015 6.648.076 1.686.093 2.193.093 6.462-.001 6.59.124 9.28-1.858 11.271z"/><path d="M24.541 9.379a1.919 1.919 0 100-3.838 1.919 1.919 0 000 3.838z"/></g><defs><clipPath id="bclip0"><path d="M0 0h32v32H0z"/></clipPath></defs></svg><svg viewBox="0 0 49 49" id="mail" xmlns="http://www.w3.org/2000/svg"><path d="M48.568 9.735L33.707 24.5l14.86 14.765A4.256 4.256 0 0049 37.42V11.58c0-.663-.163-1.283-.431-1.845zM44.694 7.273H4.307c-.663 0-1.284.163-1.845.432l18.993 18.898a4.31 4.31 0 006.09 0L46.54 7.705a4.256 4.256 0 00-1.845-.432zM.432 9.735A4.257 4.257 0 000 11.58v25.84c0 .663.163 1.284.432 1.845L15.292 24.5.432 9.735z"/><path d="M31.678 26.53l-2.103 2.103c-2.798 2.798-7.351 2.798-10.15 0l-2.102-2.103L2.462 41.295a4.257 4.257 0 001.845.432h40.387c.663 0 1.283-.163 1.845-.432L31.679 26.53z"/></svg><svg viewBox="0 0 34 34" id="phone" xmlns="http://www.w3.org/2000/svg"><g clip-path="url(#dclip0)"><path d="M33.075 24.953l-4.745-4.745c-1.695-1.695-4.576-1.017-5.253 1.186-.509 1.525-2.203 2.372-3.729 2.034-3.389-.848-7.964-5.254-8.811-8.812-.509-1.525.508-3.22 2.033-3.728 2.203-.678 2.881-3.559 1.186-5.254L9.012.89C7.656-.297 5.622-.297 4.436.89l-3.22 3.22c-3.22 3.388.34 12.37 8.304 20.334 7.965 7.965 16.946 11.693 20.335 8.304l3.22-3.22c1.186-1.356 1.186-3.39 0-4.575z"/></g><defs><clipPath id="dclip0"><path d="M0 0h34v34H0z"/></clipPath></defs></svg><svg viewBox="0 0 32 32" id="telegram" xmlns="http://www.w3.org/2000/svg"><path d="M.565 15.429L7.94 18.18l2.854 9.178a.868.868 0 001.378.415l4.11-3.35a1.226 1.226 0 011.495-.042l7.413 5.382a.869.869 0 001.362-.526l5.43-26.121a.87.87 0 00-1.164-.988L.557 13.803c-.747.288-.74 1.345.008 1.626zm9.768 1.287l14.41-8.876c.26-.159.526.192.303.398L13.153 19.293c-.418.389-.687.91-.764 1.475l-.405 3.002c-.053.4-.617.44-.727.053l-1.558-5.475a1.45 1.45 0 01.634-1.632z"/></svg><svg viewBox="0 0 32 32" id="vk" xmlns="http://www.w3.org/2000/svg"><g clip-path="url(#fclip0)"><path d="M26.553 17.37c-.517-.653-.369-.943 0-1.527.007-.007 4.278-5.908 4.718-7.91h.002c.219-.73 0-1.266-1.057-1.266h-3.499c-.89 0-1.301.46-1.521.974 0 0-1.781 4.264-4.301 7.028-.814.8-1.19 1.055-1.634 1.055-.218 0-.558-.256-.558-.985V7.932c0-.875-.25-1.265-.987-1.265h-5.501c-.559 0-.891.408-.891.788 0 .83 1.26 1.02 1.39 3.353v5.063c0 1.11-.2 1.313-.647 1.313-1.19 0-4.076-4.281-5.787-9.181-.345-.95-.683-1.335-1.58-1.335H1.2c-.999 0-1.2.46-1.2.975 0 .91 1.19 5.43 5.53 11.404 2.894 4.077 6.969 6.286 10.675 6.286 2.228 0 2.5-.49 2.5-1.334 0-3.896-.201-4.264.915-4.264.517 0 1.408.256 3.488 2.222 2.377 2.332 2.768 3.376 4.099 3.376h3.498c.998 0 1.503-.49 1.212-1.458-.665-2.036-5.161-6.224-5.364-6.504z"/></g><defs><clipPath id="fclip0"><path d="M0 0h32v32H0z"/></clipPath></defs></svg><svg viewBox="0 0 49 49" id="whatsapp" xmlns="http://www.w3.org/2000/svg"><path clip-rule="evenodd" d="M40.75 8.183C36.45 3.88 30.735 1.51 24.646 1.507 12.1 1.507 1.888 11.72 1.883 24.27a22.722 22.722 0 003.039 11.38l-3.23 11.796 12.068-3.166a22.738 22.738 0 0010.878 2.771h.01c12.545 0 22.757-10.212 22.762-22.763a22.624 22.624 0 00-6.66-16.104zM24.646 43.206h-.008a18.896 18.896 0 01-9.63-2.638l-.69-.41-7.161 1.879 1.911-6.982-.45-.716A18.873 18.873 0 015.727 24.27C5.73 13.84 14.218 5.352 24.654 5.352A18.79 18.79 0 0138.031 10.9a18.808 18.808 0 015.536 13.386c-.005 10.432-8.492 18.92-18.92 18.92zm10.378-14.17c-.569-.285-3.365-1.66-3.887-1.85-.52-.19-.9-.285-1.28.284-.378.57-1.468 1.85-1.8 2.23-.332.38-.664.427-1.233.142-.569-.284-2.401-.885-4.574-2.823-1.69-1.508-2.832-3.37-3.164-3.94-.331-.57-.003-.848.25-1.16.615-.765 1.232-1.567 1.422-1.946.19-.38.094-.712-.048-.997-.142-.284-1.28-3.084-1.753-4.223-.462-1.109-.93-.959-1.28-.976-.332-.017-.711-.02-1.09-.02-.38 0-.996.142-1.517.712-.521.57-1.99 1.945-1.99 4.745s2.037 5.504 2.322 5.883c.284.38 4.01 6.125 9.716 8.588 1.357.587 2.416.937 3.243 1.199 1.362.433 2.602.372 3.582.225 1.093-.163 3.365-1.376 3.84-2.704.473-1.33.473-2.468.33-2.705-.141-.237-.52-.38-1.09-.664z"/></svg><svg viewBox="0 0 32 32" id="youtube" xmlns="http://www.w3.org/2000/svg"><path d="M30.366 8.502a3.758 3.758 0 00-2.644-2.645c-2.347-.642-11.738-.642-11.738-.642s-9.39 0-11.738.618a3.835 3.835 0 00-2.644 2.669c-.618 2.347-.618 7.215-.618 7.215s0 4.893.618 7.216a3.759 3.759 0 002.644 2.644c2.373.643 11.738.643 11.738.643s9.39 0 11.738-.618a3.759 3.759 0 002.645-2.644c.617-2.348.617-7.216.617-7.216s.025-4.893-.618-7.24zM12.994 20.215V11.22l7.809 4.497-7.809 4.498z"/></svg></svg>